<svg id="Layer_4" data-name="Layer 4" xmlns="http://www.w3.org/2000/svg" viewBox="0 0 216.51 41.77"><defs><style>.cls-1{fill:#d8a35b;}.cls-2{fill:#f6edce;}</style></defs><title>iniciarmissaoicon</title><rect class="cls-1" width="216.51" height="41.77" rx="20.88"/><path class="cls-2" d="M938.72,766.29V741.34h2.73v24.95Z" transform="translate(-896.05 -731.96)"/><path class="cls-2" d="M952.17,766.29l-4.24-12.62-1.2-4v16.63h-2.54V741.34h2.43l3.86,12.82,1.12,4V741.34h2.55v24.95Z" transform="translate(-896.05 -731.96)"/><path class="cls-2" d="M956.85,766.29V741.34h2.73v24.95Z" transform="translate(-896.05 -731.96)"/><path class="cls-2" d="M966.89,766.67c-2.92,0-4.76-2.21-4.76-5.13V746.1c0-2.88,1.84-5.13,4.76-5.13s4.57,2.14,4.57,5v4.08H969.1v-4.34a2.14,2.14,0,1,0-4.27,0V762a2.14,2.14,0,1,0,4.27,0v-4.38h2.36v4.12C971.46,764.53,969.81,766.67,966.89,766.67Z" transform="translate(-896.05 -731.96)"/><path class="cls-2" d="M973.78,766.29V741.34h2.74v24.95Z" transform="translate(-896.05 -731.96)"/><path class="cls-2" d="M985.66,766.29,985,760.9h-3.45l-.79,5.39h-2.54L982,741.34h2.81l3.63,24.95Zm-2.32-19-1.46,11.13h2.77Z" transform="translate(-896.05 -731.96)"/><path class="cls-2" d="M999.18,766.52c-1.79,0-2.51-.6-2.51-2.7v-6.44c0-1.28-.6-2.06-1.72-2.06h-2.06v11h-2.73V741.34h4.94c2.32,0,4.16,1.17,4.16,4.5v4.76c0,1.83-.53,3.07-2.1,3.56,1.54.48,2.17,1.91,2.17,3.52v6c0,.67.15,1,.68,1v1.84Zm-2.62-20.87c0-1.16-.49-1.76-1.5-1.76h-2.17V753h2c1,0,1.72-.75,1.72-2.06Z" transform="translate(-896.05 -731.96)"/><path class="cls-2" d="M1017,766.29V747.41l-.6,4.35-2.28,14.53h-2.51l-2.36-14.53-.6-4.35v18.88h-2.4V741.34h3.86l2.24,15.44.6,4.34.6-4.34,2.21-15.44h3.75v24.95Z" transform="translate(-896.05 -731.96)"/><path class="cls-2" d="M1022.3,766.29V741.34H1025v24.95Z" transform="translate(-896.05 -731.96)"/><path class="cls-2" d="M1032,766.67a4.56,4.56,0,0,1-4.76-4.91v-2.85h2.62v2.74c0,1.65.79,2.73,2.1,2.73,1.5,0,2.17-1,2.17-2.55,0-2.39-.9-4.41-2.85-6.92-1.76-2.25-3.82-5.59-3.82-8.51,0-3.11,1.54-5.43,4.72-5.43,2.7,0,4.46,2,4.46,4.94v3h-2.55v-2.73c0-1.72-.63-2.74-2-2.74s-2,.83-2,2.29c0,2.66.93,4.35,3.14,7.27s3.52,5.43,3.52,8.28C1036.72,765.21,1034.25,766.67,1032,766.67Z" transform="translate(-896.05 -731.96)"/><path class="cls-2" d="M1043,766.67a4.57,4.57,0,0,1-4.76-4.91v-2.85h2.63v2.74c0,1.65.78,2.73,2.09,2.73,1.5,0,2.18-1,2.18-2.55,0-2.39-.9-4.41-2.85-6.92-1.76-2.25-3.82-5.59-3.82-8.51,0-3.11,1.53-5.43,4.72-5.43,2.7,0,4.46,2,4.46,4.94v3h-2.55v-2.73c0-1.72-.64-2.74-2-2.74s-2,.83-2,2.29c0,2.66.94,4.35,3.15,7.27s3.52,5.43,3.52,8.28C1047.74,765.21,1045.27,766.67,1043,766.67Z" transform="translate(-896.05 -731.96)"/><path class="cls-2" d="M1056.24,766.29l-.67-5.39h-3.45l-.78,5.39h-2.55l3.78-24.95h2.81l3.64,24.95Zm-.75-26.44c-1.16,0-2.54-1.54-3.18-1.54-.37,0-.52.26-.52.6v.94h-1.13a2.08,2.08,0,0,1-.33-1.17c0-1.34.56-2.21,1.75-2.21s2.59,1.5,3.23,1.5c.41,0,.52-.22.52-.6v-.93H1057a1.91,1.91,0,0,1,.33,1.16C1057.29,739,1056.73,739.85,1055.49,739.85Zm-1.57,7.41-1.46,11.13h2.77Z" transform="translate(-896.05 -731.96)"/><path class="cls-2" d="M1065.27,766.67c-2.92,0-4.79-2.17-4.79-5.21V746.18c0-3,1.87-5.21,4.79-5.21s4.8,2.21,4.8,5.21v15.28C1070.07,764.5,1068.2,766.67,1065.27,766.67Zm2.14-20.87a2.06,2.06,0,0,0-2.14-2.25,2,2,0,0,0-2.09,2.25v16a2,2,0,0,0,2.09,2.25,2,2,0,0,0,2.14-2.25Z" transform="translate(-896.05 -731.96)"/></svg>