<svg id="Layer_1" data-name="Layer 1" xmlns="http://www.w3.org/2000/svg" viewBox="0 0 40.08 375.59"><defs><style>.cls-1{fill:#fff;stroke:#1d1d1b;stroke-miterlimit:10;}</style></defs><title>Bebacommoderacao</title><rect class="cls-1" x="1714.11" y="721.06" width="374.59" height="39.08" transform="translate(-720.56 2089.2) rotate(-90)"/><path d="M1891.22,918.51v-8.27a25,25,0,0,1,.2-3.67,5.54,5.54,0,0,1,.86-2.16,5.2,5.2,0,0,1,1.73-1.59,4.72,4.72,0,0,1,2.42-.63,4.9,4.9,0,0,1,4.49,2.9,5.39,5.39,0,0,1,1.88-2.9,5,5,0,0,1,3.12-1,6.15,6.15,0,0,1,2.75.66,5.42,5.42,0,0,1,2.13,1.79,5.92,5.92,0,0,1,1,2.8c.08.7.12,2.38.14,5v7Zm3.44-4.18h4.79v-2.74c0-1.63,0-2.64-.07-3a2.73,2.73,0,0,0-.74-1.69,2.19,2.19,0,0,0-1.62-.62,2.29,2.29,0,0,0-1.56.53,2.39,2.39,0,0,0-.72,1.58c0,.41-.08,1.6-.08,3.57Zm8.24,0h5.53v-3.87a20.19,20.19,0,0,0-.12-2.87,2.6,2.6,0,0,0-.83-1.51,2.55,2.55,0,0,0-1.76-.59,2.7,2.7,0,0,0-1.58.45,2.59,2.59,0,0,0-1,1.31,14.66,14.66,0,0,0-.29,3.71Z" transform="translate(-1881.37 -552.81)"/><path d="M1911.92,897.64h-20.7V882.29h3.5v11.17h4.59v-10.4h3.49v10.4h5.63V881.89h3.49Z" transform="translate(-1881.37 -552.81)"/><path d="M1891.22,878.33v-8.27a25,25,0,0,1,.2-3.67,5.54,5.54,0,0,1,.86-2.16,5.42,5.42,0,0,1,1.73-1.59,4.72,4.72,0,0,1,2.42-.63,4.84,4.84,0,0,1,2.67.78,4.79,4.79,0,0,1,1.82,2.13,5.45,5.45,0,0,1,1.88-2.91,5,5,0,0,1,3.12-1,6.15,6.15,0,0,1,2.75.66,5.5,5.5,0,0,1,2.13,1.79,5.92,5.92,0,0,1,1,2.8c.08.7.12,2.38.14,5v7Zm3.44-4.18h4.79v-2.74c0-1.63,0-2.64-.07-3a2.73,2.73,0,0,0-.74-1.69,2.19,2.19,0,0,0-1.62-.62,2.29,2.29,0,0,0-1.56.53,2.39,2.39,0,0,0-.72,1.58c0,.41-.08,1.6-.08,3.57Zm8.24,0h5.53v-3.87a19.91,19.91,0,0,0-.12-2.86,2.6,2.6,0,0,0-.83-1.52,2.55,2.55,0,0,0-1.76-.59,2.7,2.7,0,0,0-1.58.45,2.64,2.64,0,0,0-1,1.31,14.71,14.71,0,0,0-.29,3.71Z" transform="translate(-1881.37 -552.81)"/><path d="M1911.92,838.79v4.55l-4.7,1.81v8.27l4.7,1.71v4.43l-20.7-8.06v-4.42Zm-8.19,7.7-7.68,2.85,7.68,2.8Z" transform="translate(-1881.37 -552.81)"/><path d="M1904.31,816.36l1.29-4.05a9.11,9.11,0,0,1,5,3.1,9.74,9.74,0,0,1-1.17,12.28,10.79,10.79,0,0,1-7.71,2.65c-3.44,0-6.12-.89-8-2.66a9.14,9.14,0,0,1-2.86-7,8.58,8.58,0,0,1,2.24-6.17,8.14,8.14,0,0,1,3.81-2.12l1,4.13a4.29,4.29,0,0,0-3.47,4.37,4.7,4.7,0,0,0,1.65,3.73c1.1,1,2.89,1.44,5.35,1.44q3.93,0,5.6-1.41a4.61,4.61,0,0,0,1.66-3.68,4.15,4.15,0,0,0-1.06-2.86A6.12,6.12,0,0,0,1904.31,816.36Z" transform="translate(-1881.37 -552.81)"/><path d="M1901.7,809.57a13,13,0,0,1-5.31-1,9.75,9.75,0,0,1-2.84-1.92,8.19,8.19,0,0,1-1.87-2.68,11.48,11.48,0,0,1-.81-4.46,9.72,9.72,0,0,1,2.83-7.32c1.9-1.84,4.53-2.75,7.9-2.75s6,.91,7.84,2.72a10.87,10.87,0,0,1,0,14.63A10.69,10.69,0,0,1,1901.7,809.57Zm-.14-4.31a7.78,7.78,0,0,0,5.33-1.62,5.59,5.59,0,0,0,0-8.23,7.9,7.9,0,0,0-5.4-1.6,7.8,7.8,0,0,0-5.31,1.56,5.78,5.78,0,0,0,0,8.31C1897.39,804.74,1899.17,805.26,1901.56,805.26Z" transform="translate(-1881.37 -552.81)"/><path d="M1911.92,786.28h-20.7V780l14.12-3.76-14.12-3.71v-6.27h20.7v3.88h-16.29l16.29,4.11v4l-16.29,4.1h16.29Z" transform="translate(-1881.37 -552.81)"/><path d="M1911.92,754.15h-20.7V747.9l14.12-3.76-14.12-3.71v-6.27h20.7V738h-16.29l16.29,4.11v4l-16.29,4.1h16.29Z" transform="translate(-1881.37 -552.81)"/><path d="M1901.7,730.85a13.18,13.18,0,0,1-5.31-.94,9.78,9.78,0,0,1-2.84-1.93,8.19,8.19,0,0,1-1.87-2.68,11.48,11.48,0,0,1-.81-4.46,9.72,9.72,0,0,1,2.83-7.32q2.85-2.74,7.9-2.75c3.34,0,6,.91,7.84,2.72a9.66,9.66,0,0,1,2.84,7.29,9.76,9.76,0,0,1-2.82,7.35A10.73,10.73,0,0,1,1901.7,730.85Zm-.14-4.31a7.78,7.78,0,0,0,5.33-1.62,5.59,5.59,0,0,0,0-8.23,8,8,0,0,0-5.4-1.6,7.8,7.8,0,0,0-5.31,1.56,5.78,5.78,0,0,0,0,8.31C1897.39,726,1899.17,726.54,1901.56,726.54Z" transform="translate(-1881.37 -552.81)"/><path d="M1891.22,707.52v-7.64a15.16,15.16,0,0,1,.39-3.94,7,7,0,0,1,1.91-3.12,9.09,9.09,0,0,1,3.35-2,15.42,15.42,0,0,1,4.9-.67,13.68,13.68,0,0,1,4.4.63,9.13,9.13,0,0,1,3.66,2.22,7.3,7.3,0,0,1,1.66,2.94,12.71,12.71,0,0,1,.43,3.7v7.86Zm3.5-4.18h13.71v-3.12a11.64,11.64,0,0,0-.19-2.53,3.83,3.83,0,0,0-.87-1.69,4.4,4.4,0,0,0-2-1.09,13.65,13.65,0,0,0-3.8-.42,12.44,12.44,0,0,0-3.68.42,4.7,4.7,0,0,0-2,1.19,3.93,3.93,0,0,0-1,1.93,19.11,19.11,0,0,0-.2,3.43Z" transform="translate(-1881.37 -552.81)"/><path d="M1911.92,686.62h-20.7V671.27h3.5v11.17h4.59V672.05h3.49v10.39h5.63V670.87h3.49Z" transform="translate(-1881.37 -552.81)"/><path d="M1911.92,667.32h-20.7v-8.8a15.15,15.15,0,0,1,.56-4.83,4.73,4.73,0,0,1,2-2.4,5.91,5.91,0,0,1,3.26-.91,5.53,5.53,0,0,1,3.85,1.37,6.65,6.65,0,0,1,1.92,4.1,9.48,9.48,0,0,1,1.73-2.24,23.55,23.55,0,0,1,3.36-2.38l4-2.53v5l-4.5,3a29.71,29.71,0,0,0-3.05,2.21,3.2,3.2,0,0,0-.86,1.25,7.17,7.17,0,0,0-.23,2.11v.84h8.64Zm-12-4.19V660a15.94,15.94,0,0,0-.25-3.75,2.28,2.28,0,0,0-.88-1.18,2.7,2.7,0,0,0-1.55-.42,2.51,2.51,0,0,0-1.69.56,2.56,2.56,0,0,0-.81,1.57c0,.34-.07,1.36-.07,3v3.26Z" transform="translate(-1881.37 -552.81)"/><path d="M1911.92,627.77v4.55l-4.7,1.81v8.27l4.7,1.71v4.44l-20.7-8.07v-4.42Zm-8.19,7.7-7.68,2.85,7.68,2.8Z" transform="translate(-1881.37 -552.81)"/><path d="M1904.31,612.31l1.29-4a9.1,9.1,0,0,1,5,3.09,9.74,9.74,0,0,1-1.17,12.28,10.8,10.8,0,0,1-7.71,2.66c-3.44,0-6.12-.89-8-2.67a9.14,9.14,0,0,1-2.86-7,8.59,8.59,0,0,1,2.24-6.17,8.22,8.22,0,0,1,3.81-2.12l1,4.14a4.35,4.35,0,0,0-2.54,1.53,4.4,4.4,0,0,0-.93,2.83,4.72,4.72,0,0,0,1.65,3.74c1.1,1,2.89,1.43,5.35,1.43q3.93,0,5.6-1.41a4.59,4.59,0,0,0,1.66-3.67,4.18,4.18,0,0,0-1.06-2.87A6.12,6.12,0,0,0,1904.31,612.31Zm13.3,8.78H1916a26.19,26.19,0,0,0,.15-2.67,3.13,3.13,0,0,0-.45-1.86,1,1,0,0,0-1.71,0,2.17,2.17,0,0,0-.35,1.36,6.39,6.39,0,0,0,.28,1.85l-1.4-.37a7.31,7.31,0,0,1-.38-2.37,4.07,4.07,0,0,1,.78-2.69,2.47,2.47,0,0,1,3.91.1,6.3,6.3,0,0,1,1.06,3.93A12.51,12.51,0,0,1,1917.61,621.09Z" transform="translate(-1881.37 -552.81)"/><path d="M1911.92,586v4.55l-4.7,1.8v8.28l4.7,1.71v4.43l-20.7-8.06v-4.42Zm-21.84,13.78v1.81h-.51a3.28,3.28,0,0,1-2.28-.72,2.34,2.34,0,0,1-.8-1.85,3.73,3.73,0,0,1,.1-.91,11.9,11.9,0,0,1,.61-1.55,4.62,4.62,0,0,0,.5-1.76,1,1,0,0,0-.28-.75,1.45,1.45,0,0,0-1-.39v-1.84a4.32,4.32,0,0,1,2.73.71,2.26,2.26,0,0,1,.82,1.8,4.25,4.25,0,0,1-.1.95c-.06.22-.25.76-.58,1.63a6,6,0,0,0-.49,1.89.91.91,0,0,0,.27.7A1.47,1.47,0,0,0,1890.08,599.78Zm13.65-6.09-7.68,2.86,7.68,2.79Z" transform="translate(-1881.37 -552.81)"/><path d="M1901.7,584.63a13.17,13.17,0,0,1-5.31-1,9.59,9.59,0,0,1-2.84-1.93,8.06,8.06,0,0,1-1.87-2.67,11.48,11.48,0,0,1-.81-4.46,9.72,9.72,0,0,1,2.83-7.33q2.85-2.74,7.9-2.74c3.34,0,6,.9,7.84,2.72a10.87,10.87,0,0,1,0,14.63A10.69,10.69,0,0,1,1901.7,584.63Zm-.14-4.31a7.78,7.78,0,0,0,5.33-1.62,5.59,5.59,0,0,0,0-8.23,7.9,7.9,0,0,0-5.4-1.6,7.8,7.8,0,0,0-5.31,1.56,5.26,5.26,0,0,0-1.75,4.14,5.32,5.32,0,0,0,1.77,4.17A7.84,7.84,0,0,0,1901.56,580.32Z" transform="translate(-1881.37 -552.81)"/></svg>